<?xml version="1.0" encoding="utf-8"?>
<!-- Generator: Adobe Illustrator 22.1.0, SVG Export Plug-In . SVG Version: 6.00 Build 0)  -->
<svg version="1.1" id="Layer_1" xmlns="http://www.w3.org/2000/svg" xmlns:xlink="http://www.w3.org/1999/xlink" x="0px" y="0px"
	 viewBox="0 0 1920 1080" style="enable-background:new 0 0 1920 1080;" xml:space="preserve">
<style type="text/css">
	.st0{fill:none;stroke:#000000;stroke-width:9;stroke-miterlimit:10;}
	.st1{fill:#FFFFFF;stroke:#000000;stroke-width:9;stroke-miterlimit:10;}
	.st2{fill:#FFFFFF;stroke:#000000;stroke-width:21;stroke-miterlimit:10;}
</style>
<path class="st0" d="M387.5,548"/>
<g>
	<path class="st1" d="M784,414L784,414c-28.2-21.8-69-16.3-91.2,12.3l0,0c-22.2,28.6-17.3,69.5,10.9,91.3l0,0
		c1.6,1.1,33.4,22.9,64.9,8.1c14.7-6.9,22.6-18.7,26-24.5c0.1-9.7,0.2-19.3,0.3-29"/>
	<path class="st2" d="M740.1,410.4"/>
	<path class="st0" d="M768.5,490.3c19.9-20.3-9.6-66.6-28.9-67c-20.2-0.4-47.5,49.2-27.5,68.3C724.7,503.7,755.8,503.3,768.5,490.3z
		"/>
	<circle cx="794.9" cy="439.5" r="8.8"/>
</g>
<path class="st0" d="M386.3,239.6"/>
</svg>
